<svg width="125" height="40" viewBox="0 0 125 40" fill="none" xmlns="http://www.w3.org/2000/svg">
<path d="M7.32422 21.25H5.37891V28H1.26562V10.9375H5.37891V17.5352H6.96094L10.2422 10.9375H15.2227L10.5352 18.8125L15.8086 28H10.9453L7.32422 21.25ZM24.0234 15.3203H27.9844V28H24.0234V20.6172L20.543 28H16.5703V15.3203H20.543V22.6797L24.0234 15.3203ZM41.3906 28H37.4297V23.3008H33.9727V28H30.0234V15.3203H33.9727V20.2656H37.4297V15.3203H41.3906V28ZM43.0547 21.543C43.0547 20.2773 43.3008 19.1523 43.793 18.168C44.2852 17.1758 44.9922 16.4141 45.9141 15.8828C46.8359 15.3516 47.918 15.0859 49.1602 15.0859C51.0586 15.0859 52.5547 15.6758 53.6484 16.8555C54.7422 18.0273 55.2891 19.625 55.2891 21.6484V21.7891C55.2891 23.7656 54.7383 25.3359 53.6367 26.5C52.543 27.6562 51.0586 28.2344 49.1836 28.2344C47.3789 28.2344 45.9297 27.6953 44.8359 26.6172C43.7422 25.5312 43.1523 24.0625 43.0664 22.2109L43.0547 21.543ZM47.0039 21.7891C47.0039 22.9609 47.1875 23.8203 47.5547 24.3672C47.9219 24.9141 48.4648 25.1875 49.1836 25.1875C50.5898 25.1875 51.3086 24.1055 51.3398 21.9414V21.543C51.3398 19.2695 50.6133 18.1328 49.1602 18.1328C47.8398 18.1328 47.125 19.1133 47.0156 21.0742L47.0039 21.7891ZM71.543 28H67.4297V14.1133H61.3008V28H57.1875V10.9375H71.543V28ZM78.9961 22.4688L81.1055 15.3203H85.3359L80.168 30.1211L79.9453 30.6602C79.2109 32.3008 77.9141 33.1211 76.0547 33.1211C75.5391 33.1211 74.9961 33.043 74.4258 32.8867V30.0625H74.9414C75.4961 30.0625 75.918 29.9805 76.207 29.8164C76.5039 29.6602 76.7227 29.375 76.8633 28.9609L77.1797 28.1172L72.7734 15.3203H76.9922L78.9961 22.4688ZM97.207 15.3203V28H93.2578V18.3672H90.8906L90.6797 22.2461C90.5312 24.168 90.0977 25.6055 89.3789 26.5586C88.6602 27.5117 87.5938 27.9922 86.1797 28H84.9375L84.8906 24.9766L85.3008 24.9297C85.8242 24.8672 86.2109 24.5195 86.4609 23.8867C86.7188 23.2461 86.8828 22.2812 86.9531 20.9922L87.1992 15.3203H97.207ZM103.594 18.8008H105.621C106.793 18.8008 107.824 18.9922 108.715 19.375C109.605 19.7578 110.285 20.3008 110.754 21.0039C111.223 21.707 111.457 22.5234 111.457 23.4531C111.457 24.8203 110.926 25.9219 109.863 26.7578C108.809 27.5859 107.367 28 105.539 28H99.6211V15.3203H103.594V18.8008ZM103.594 21.8359V24.9766H105.598C106.199 24.9766 106.668 24.8398 107.004 24.5664C107.348 24.2852 107.52 23.9062 107.52 23.4297C107.52 22.9609 107.367 22.5781 107.062 22.2812C106.758 21.9844 106.27 21.8359 105.598 21.8359H103.594ZM118.289 25.1875C118.844 25.1875 119.273 25.0391 119.578 24.7422C119.883 24.4375 120.031 24.0156 120.023 23.4766H123.727C123.727 24.8672 123.227 26.0078 122.227 26.8984C121.234 27.7891 119.953 28.2344 118.383 28.2344C116.539 28.2344 115.086 27.6562 114.023 26.5C112.961 25.3438 112.43 23.7422 112.43 21.6953V21.5312C112.43 20.25 112.664 19.1211 113.133 18.1445C113.609 17.1602 114.293 16.4062 115.184 15.8828C116.074 15.3516 117.129 15.0859 118.348 15.0859C119.996 15.0859 121.305 15.543 122.273 16.457C123.242 17.3711 123.727 18.6094 123.727 20.1719H120.023C120.023 19.5156 119.863 19.0117 119.543 18.6602C119.223 18.3086 118.793 18.1328 118.254 18.1328C117.23 18.1328 116.633 18.7852 116.461 20.0898C116.406 20.5039 116.379 21.0742 116.379 21.8008C116.379 23.0742 116.531 23.957 116.836 24.4492C117.141 24.9414 117.625 25.1875 118.289 25.1875Z" fill="white"/>
</svg>
